Newsreader-BoldItalic.ufo
<glyph name="ampersand" format="2">
  <advance width="1389.024"/>
  <unicode hex="0026"/>
  <outline>
    <contour>
      <point x="991.488" y="228.128" type="line"/>
      <point x="1100.672" y="343.48"/>
      <point x="1204.208" y="504.592"/>
      <point x="1297.04" y="722.168" type="curve"/>
      <point x="1434.176" y="768.872" type="line"/>
      <point x="1447.768" y="813.0" type="line"/>
      <point x="998.944" y="813.0" type="line"/>
      <point x="985.0" y="768.872" type="line"/>
      <point x="1108.448" y="722.168" type="line"/>
      <point x="1075.848" y="523.776"/>
      <point x="1018.232" y="384.96"/>
      <point x="952.672" y="305.456" type="curve"/>
      <point x="838.616" y="222.448" type="line"/>
      <point x="759.2" y="159.936"/>
      <point x="661.712" y="137.36"/>
      <point x="569.744" y="137.36" type="curve" smooth="yes"/>
      <point x="404.76" y="137.36"/>
      <point x="312.112" y="228.768"/>
      <point x="312.112" y="373.136" type="curve" smooth="yes"/>
      <point x="312.112" y="504.12"/>
      <point x="371.28" y="626.552"/>
      <point x="541.288" y="702.04" type="curve"/>
      <point x="721.704" y="776.712" type="line"/>
      <point x="1018.816" y="879.496"/>
      <point x="1115.728" y="990.848"/>
      <point x="1115.728" y="1138.408" type="curve" smooth="yes"/>
      <point x="1115.728" y="1268.352"/>
      <point x="1012.176" y="1366.48"/>
      <point x="811.96" y="1366.48" type="curve" smooth="yes"/>
      <point x="533.512" y="1366.48"/>
      <point x="387.064" y="1218.464"/>
      <point x="387.064" y="1030.72" type="curve" smooth="yes"/>
      <point x="387.064" y="933.112"/>
      <point x="414.416" y="837.408"/>
      <point x="476.064" y="726.336" type="curve" smooth="yes"/>
      <point x="878.832" y="0.0" type="line"/>
      <point x="1273.432" y="0.0" type="line"/>
      <point x="1286.616" y="46.072" type="line"/>
      <point x="1125.336" y="101.184" type="line"/>
      <point x="705.256" y="853.032" type="line" smooth="yes"/>
      <point x="647.112" y="959.208"/>
      <point x="625.76" y="1027.488"/>
      <point x="625.76" y="1097.544" type="curve" smooth="yes"/>
      <point x="625.76" y="1188.792"/>
      <point x="680.024" y="1266.56"/>
      <point x="792.352" y="1266.56" type="curve" smooth="yes"/>
      <point x="863.376" y="1266.56"/>
      <point x="902.36" y="1225.112"/>
      <point x="902.36" y="1150.352" type="curve" smooth="yes"/>
      <point x="902.36" y="1037.92"/>
      <point x="836.576" y="919.568"/>
      <point x="688.336" y="830.048" type="curve"/>
      <point x="515.936" y="758.688" type="line"/>
      <point x="173.968" y="652.888"/>
      <point x="50.104" y="512.328"/>
      <point x="50.104" y="308.888" type="curve" smooth="yes"/>
      <point x="50.104" y="113.704"/>
      <point x="170.456" y="-26.128"/>
      <point x="440.504" y="-26.128" type="curve" smooth="yes"/>
      <point x="570.6" y="-26.128"/>
      <point x="711.936" y="17.855999999999998"/>
      <point x="875.728" y="146.00799999999998" type="curve"/>
    </contour>
  </outline>
</glyph>
<glyph name="parenright" format="2">
  <advance width="557.104"/>
  <unicode hex="0029"/>
  <outline>
    <contour>
      <point x="-155.72" y="-220.912" type="curve"/>
      <point x="-104.872" y="-275.0" type="line"/>
      <point x="461.4" y="210.6"/>
      <point x="566.824" y="514.56"/>
      <point x="566.824" y="842.6" type="curve" smooth="yes"/>
      <point x="566.824" y="1035.184"/>
      <point x="507.2" y="1227.624"/>
      <point x="409.888" y="1425.48" type="curve"/>
      <point x="340.504" y="1400.056" type="line"/>
      <point x="379.8" y="1252.688"/>
      <point x="395.8" y="1126.744"/>
      <point x="395.8" y="1009.8" type="curve" smooth="yes"/>
      <point x="395.8" y="624.456"/>
      <point x="293.872" y="239.112"/>
    </contour>
  </outline>
</glyph>
<glyph name="slash" format="2">
  <advance width="800.112"/>
  <unicode hex="002F"/>
  <outline>
    <contour>
      <point x="-60.016" y="0.0" type="line"/>
      <point x="69.944" y="0.0" type="line"/>
      <point x="1005.184" y="1340.0" type="line"/>
      <point x="874.872" y="1340.0" type="line"/>
    </contour>
  </outline>
</glyph>
<glyph name="C" format="2">
  <advance width="1371.232"/>
  <unicode hex="0043"/>
  <anchor x="969.816" y="1340.0" name="UCtop"/>
  <anchor x="707.5840000000001" y="0.0" name="bottom"/>
  <anchor x="1256.328" y="0.0" name="right"/>
  <outline>
    <contour>
      <point x="1046.24" y="132.848" type="line"/>
      <point x="965.328" y="105.16"/>
      <point x="895.008" y="95.75200000000001"/>
      <point x="830.296" y="95.75200000000001" type="curve" smooth="yes"/>
      <point x="594.288" y="95.75200000000001"/>
      <point x="438.288" y="247.272"/>
      <point x="438.288" y="527.112" type="curve" smooth="yes"/>
      <point x="438.288" y="945.832"/>
      <point x="704.864" y="1247.136"/>
      <point x="1061.968" y="1247.136" type="curve" smooth="yes"/>
      <point x="1170.472" y="1247.136"/>
      <point x="1240.048" y="1214.768"/>
      <point x="1319.312" y="1151.008" type="curve"/>
      <point x="1234.672" y="1259.808" type="line"/>
      <point x="1355.528" y="906.192" type="line"/>
      <point x="1413.728" y="906.192" type="line"/>
      <point x="1453.072" y="1410.96" type="line"/>
      <point x="1417.928" y="1410.96" type="line"/>
      <point x="1268.392" y="1306.576" type="line"/>
      <point x="1409.04" y="1313.648" type="line"/>
      <point x="1296.432" y="1355.832"/>
      <point x="1188.656" y="1366.48"/>
      <point x="1068.456" y="1366.48" type="curve" smooth="yes"/>
      <point x="536.816" y="1366.48"/>
      <point x="136.264" y="1011.664"/>
      <point x="136.264" y="507.832" type="curve" smooth="yes"/>
      <point x="136.264" y="182.592"/>
      <point x="362.704" y="-26.48"/>
      <point x="760.848" y="-26.48" type="curve" smooth="yes"/>
      <point x="898.736" y="-26.48"/>
      <point x="1061.1113751848272" y="5.205843796206772"/>
      <point x="1173.92" y="39.744" type="curve"/>
      <point x="1303.728" y="387.048" type="line"/>
      <point x="1239.232" y="387.048" type="line"/>
      <point x="976.56" y="80.648" type="line"/>
    </contour>
  </outline>
</glyph>
<glyph name="D" format="2">
  <advance width="1496.936"/>
  <unicode hex="0044"/>
  <anchor x="958.136" y="1340.0" name="UCtop"/>
  <anchor x="656.896" y="0.0" name="bottom"/>
  <outline>
    <contour>
      <point x="551.416" y="113.92" type="curve" smooth="yes"/>
      <point x="269.928" y="113.92" type="line"/>
      <point x="207.88" y="0.0" type="line"/>
      <point x="541.4" y="0.0" type="line" smooth="yes"/>
      <point x="1143.568" y="0.0"/>
      <point x="1509.208" y="373.72"/>
      <point x="1509.208" y="842.032" type="curve" smooth="yes"/>
      <point x="1509.208" y="1141.616"/>
      <point x="1330.1680000000001" y="1340.0"/>
      <point x="897.504" y="1340.0" type="curve" smooth="yes"/>
      <point x="617.88" y="1340.0" type="line"/>
      <point x="604.432" y="1226.08" type="line"/>
      <point x="813.752" y="1226.08" type="line" smooth="yes"/>
      <point x="1079.584" y="1226.08"/>
      <point x="1211.904" y="1097.6785974025972"/>
      <point x="1211.904" y="869.36" type="curve" smooth="yes"/>
      <point x="1211.904" y="426.6171428571429"/>
      <point x="948.824" y="113.92"/>
    </contour>
    <contour>
      <point x="459.36" y="1247.928" type="line"/>
      <point x="108.24799999999999" y="97.016" type="line"/>
      <point x="-44.68" y="41.888" type="line"/>
      <point x="-57.328" y="0.0" type="line"/>
      <point x="372.272" y="0.0" type="line"/>
      <point x="780.216" y="1340.0" type="line"/>
      <point x="347.264" y="1340.0" type="line"/>
      <point x="334.616" y="1298.112" type="line"/>
    </contour>
  </outline>
</glyph>
<glyph name="G" format="2">
  <advance width="1475.656"/>
  <unicode hex="0047"/>
  <anchor x="990.576" y="1340.0" name="UCtop"/>
  <anchor x="729.896" y="0.0" name="bottom"/>
  <outline>
    <contour>
      <point x="829.592" y="95.75200000000001" type="curve" smooth="yes"/>
      <point x="593.5840000000001" y="95.75200000000001"/>
      <point x="437.584" y="247.272"/>
      <point x="437.584" y="527.112" type="curve" smooth="yes"/>
      <point x="437.584" y="945.832"/>
      <point x="712.2033243243243" y="1247.136"/>
      <point x="1080.376" y="1247.136" type="curve" smooth="yes"/>
      <point x="1188.88" y="1247.136"/>
      <point x="1258.456" y="1214.768"/>
      <point x="1337.72" y="1151.008" type="curve"/>
      <point x="1253.08" y="1259.808" type="line"/>
      <point x="1373.936" y="906.192" type="line"/>
      <point x="1432.136" y="906.192" type="line"/>
      <point x="1471.48" y="1410.96" type="line"/>
      <point x="1436.336" y="1410.96" type="line"/>
      <point x="1286.8" y="1306.576" type="line"/>
      <point x="1427.448" y="1313.648" type="line"/>
      <point x="1314.84" y="1355.832"/>
      <point x="1207.064" y="1366.48"/>
      <point x="1086.864" y="1366.48" type="curve" smooth="yes"/>
      <point x="544.325275" y="1366.48"/>
      <point x="135.56" y="1011.664"/>
      <point x="135.56" y="507.832" type="curve" smooth="yes"/>
      <point x="135.56" y="182.592"/>
      <point x="362.0" y="-26.48"/>
      <point x="760.144" y="-26.48" type="curve" smooth="yes"/>
      <point x="958.096" y="-26.48"/>
      <point x="1127.6839810438503" y="-1.8813396520499648"/>
      <point x="1262.296" y="48.504" type="curve"/>
      <point x="1264.888" y="60.816" type="line"/>
      <point x="1253.56" y="156.264" type="line"/>
      <point x="1358.8" y="501.336" type="line"/>
      <point x="1489.616" y="556.464" type="line"/>
      <point x="1502.264" y="598.352" type="line"/>
      <point x="932.976" y="598.352" type="line"/>
      <point x="920.328" y="556.464" type="line"/>
      <point x="1067.184" y="506.28" type="line"/>
      <point x="931.72" y="64.128" type="line"/>
      <point x="1029.648" y="140.712" type="line"/>
      <point x="975.696" y="113.24"/>
      <point x="894.752" y="95.75200000000001"/>
    </contour>
  </outline>
</glyph>
<glyph name="P" format="2">
  <advance width="1249.032"/>
  <unicode hex="0050"/>
  <anchor x="890.88" y="1340.0" name="UCtop"/>
  <anchor x="223.176" y="0.0" name="bottom"/>
  <outline>
    <contour>
      <point x="754.416" y="674.352" type="curve" smooth="yes"/>
      <point x="389.264" y="674.352" type="line"/>
      <point x="356.416" y="560.432" type="line"/>
      <point x="758.704" y="560.432" type="line" smooth="yes"/>
      <point x="1172.84" y="560.432"/>
      <point x="1377.936" y="762.04"/>
      <point x="1377.936" y="1029.504" type="curve" smooth="yes"/>
      <point x="1377.936" y="1200.336"/>
      <point x="1260.232" y="1340.0"/>
      <point x="930.0" y="1340.0" type="curve" smooth="yes"/>
      <point x="596.192" y="1340.0" type="line"/>
      <point x="554.192" y="1226.08" type="line"/>
      <point x="857.176" y="1226.08" type="line" smooth="yes"/>
      <point x="1021.48" y="1226.08"/>
      <point x="1089.928" y="1152.208"/>
      <point x="1089.928" y="1028.832" type="curve" smooth="yes"/>
      <point x="1089.928" y="818.44"/>
      <point x="976.696" y="674.352"/>
    </contour>
    <contour>
      <point x="399.86400000000003" y="92.072" type="line"/>
      <point x="780.864" y="1340.0" type="line"/>
      <point x="347.264" y="1340.0" type="line"/>
      <point x="334.616" y="1298.112" type="line"/>
      <point x="459.36" y="1247.928" type="line"/>
      <point x="108.24799999999999" y="97.016" type="line"/>
      <point x="-44.68" y="41.888" type="line"/>
      <point x="-57.328" y="0.0" type="line"/>
      <point x="511.96000000000004" y="0.0" type="line"/>
      <point x="524.608" y="41.888" type="line"/>
    </contour>
  </outline>
</glyph>
<glyph name="V" format="2">
  <advance width="1379.144"/>
  <unicode hex="0056"/>
  <anchor x="987.4639999999999" y="1340.0" name="UCtop"/>
  <anchor x="595.504" y="0.0" name="bottom"/>
  <outline>
    <contour>
      <point x="359.576" y="1238.152" type="line"/>
      <point x="471.504" y="-7.039999999999999" type="line"/>
      <point x="657.768" y="-7.039999999999999" type="line"/>
      <point x="1493.512" y="1244.688" type="line"/>
      <point x="1651.032" y="1298.112" type="line"/>
      <point x="1663.976" y="1340.0" type="line"/>
      <point x="1237.184" y="1340.0" type="line"/>
      <point x="1224.24" y="1298.112" type="line"/>
      <point x="1359.296" y="1244.688" type="line"/>
      <point x="661.864" y="172.864" type="line"/>
      <point x="726.808" y="178.048" type="line"/>
      <point x="648.952" y="1241.448" type="line"/>
      <point x="819.936" y="1298.112" type="line"/>
      <point x="833.528" y="1340.0" type="line"/>
      <point x="245.632" y="1340.0" type="line"/>
      <point x="232.688" y="1298.112" type="line"/>
    </contour>
  </outline>
</glyph>
<glyph name="i" format="2">
  <advance width="633.496"/>
  <unicode hex="0069"/>
  <anchor x="593.656" y="1360.768" name="top"/>
  <anchor x="204.632" y="0.0" name="bottom"/>
  <anchor x="391.29600000000005" y="0.0" name="right"/>
  <outline>
    <contour>
      <point x="63.704" y="85.54400000000001" type="line" smooth="yes"/>
      <point x="35.152" y="9.368"/>
      <point x="70.168" y="-26.48"/>
      <point x="179.16" y="-26.48" type="curve" smooth="yes"/>
      <point x="313.52" y="-26.48"/>
      <point x="451.15999999999997" y="50.088"/>
      <point x="601.88" y="237.768" type="curve"/>
      <point x="563.512" y="276.896" type="line"/>
      <point x="460.608" y="179.696"/>
      <point x="378.048" y="135.344"/>
      <point x="280.648" y="140.10399999999998" type="curve"/>
      <point x="328.752" y="72.296" type="line"/>
      <point x="582.92" y="779.4159999999999" type="line" smooth="yes"/>
      <point x="610.472" y="854.888"/>
      <point x="575.048" y="891.44"/>
      <point x="474.152" y="891.44" type="curve" smooth="yes"/>
      <point x="337.79200000000003" y="891.44"/>
      <point x="194.376" y="815.872"/>
      <point x="51.192" y="606.912" type="curve"/>
      <point x="91.56" y="570.784" type="line"/>
      <point x="190.352" y="677.928"/>
      <point x="272.8" y="726.096"/>
      <point x="371.496" y="723.448" type="curve"/>
      <point x="317.872" y="772.664" type="line"/>
    </contour>
    <contour>
      <point x="421.68" y="1262.416" type="curve" smooth="yes"/>
      <point x="421.68" y="1169.904"/>
      <point x="489.064" y="1103.408"/>
      <point x="579.096" y="1103.408" type="curve" smooth="yes"/>
      <point x="669.776" y="1103.408"/>
      <point x="737.16" y="1169.904"/>
      <point x="737.16" y="1262.416" type="curve" smooth="yes"/>
      <point x="737.16" y="1356.224"/>
      <point x="669.776" y="1421.424"/>
      <point x="579.096" y="1421.424" type="curve" smooth="yes"/>
      <point x="489.064" y="1421.424"/>
      <point x="421.68" y="1356.224"/>
    </contour>
  </outline>
</glyph>
<glyph name="braceleft" format="2">
  <advance width="593.448"/>
  <unicode hex="007B"/>
  <outline>
    <contour>
      <point x="66.0" y="530.76" type="line"/>
      <point x="129.728" y="527.76" type="line" smooth="yes"/>
      <point x="191.304" y="525.112"/>
      <point x="220.528" y="501.056"/>
      <point x="220.528" y="451.888" type="curve" smooth="yes"/>
      <point x="220.528" y="333.392"/>
      <point x="57.384" y="96.0291473007508"/>
      <point x="57.384" y="-46.704" type="curve" smooth="yes"/>
      <point x="57.384" y="-154.0"/>
      <point x="122.73599999999999" y="-249.128"/>
      <point x="251.752" y="-267.888" type="curve" smooth="yes"/>
      <point x="322.912" y="-277.832" type="line"/>
      <point x="352.984" y="-208.504" type="line"/>
      <point x="314.616" y="-201.152" type="line" smooth="yes"/>
      <point x="258.28" y="-189.28"/>
      <point x="235.52" y="-151.592"/>
      <point x="235.52" y="-91.832" type="curve" smooth="yes"/>
      <point x="235.52" y="43.144000000000005"/>
      <point x="367.704" y="291.04"/>
      <point x="367.704" y="423.552" type="curve" smooth="yes"/>
      <point x="367.704" y="498.144"/>
      <point x="333.24" y="555.368"/>
      <point x="244.832" y="578.24" type="curve"/>
      <point x="240.128" y="563.424" type="line"/>
      <point x="370.24" y="589.408"/>
      <point x="449.352" y="666.192"/>
      <point x="485.016" y="784.648" type="curve" smooth="yes"/>
      <point x="524.256" y="920.704"/>
      <point x="543.456" y="1058.736"/>
      <point x="573.752" y="1163.496" type="curve" smooth="yes"/>
      <point x="603.992" y="1266.144"/>
      <point x="655.936" y="1329.352"/>
      <point x="763.664" y="1337.112" type="curve" smooth="yes"/>
      <point x="826.856" y="1341.872" type="line"/>
      <point x="842.744" y="1422.312" type="line"/>
      <point x="743.408" y="1414.96" type="line" smooth="yes"/>
      <point x="521.304" y="1398.368"/>
      <point x="405.136" y="1289.808"/>
      <point x="366.136" y="1154.176" type="curve" smooth="yes"/>
      <point x="329.304" y="1028.4"/>
      <point x="338.824" y="856.176"/>
      <point x="306.84" y="742.72" type="curve" smooth="yes"/>
      <point x="281.248" y="657.424"/>
      <point x="242.61599999999999" y="621.016"/>
      <point x="155.208" y="616.72" type="curve" smooth="yes"/>
      <point x="90.888" y="613.72" type="line"/>
    </contour>
  </outline>
</glyph>
<glyph name="registered" format="2">
  <advance width="1107.536"/>
  <unicode hex="00AE"/>
  <outline>
    <contour>
      <point x="891.72" y="750.296" type="line"/>
      <point x="863.072" y="750.296"/>
      <point x="858.312" y="755.648"/>
      <point x="858.496" y="796.408" type="curve" smooth="yes"/>
      <point x="858.92" y="861.52" type="line" smooth="yes"/>
      <point x="860.048" y="922.704"/>
      <point x="836.64" y="946.832"/>
      <point x="771.976" y="949.48" type="curve"/>
      <point x="776.456" y="943.424" type="line"/>
      <point x="894.456" y="947.592"/>
      <point x="949.048" y="996.424"/>
      <point x="949.048" y="1073.536" type="curve" smooth="yes"/>
      <point x="949.048" y="1123.0"/>
      <point x="916.288" y="1166.0"/>
      <point x="821.472" y="1166.0" type="curve" smooth="yes"/>
      <point x="677.824" y="1166.0" type="line"/>
      <point x="674.304" y="1110.576" type="line"/>
      <point x="771.384" y="1110.576" type="line" smooth="yes"/>
      <point x="807.536" y="1110.576"/>
      <point x="822.648" y="1094.464"/>
      <point x="822.648" y="1065.0" type="curve" smooth="yes"/>
      <point x="822.648" y="1008.48"/>
      <point x="788.184" y="965.944"/>
      <point x="734.312" y="965.944" type="curve" smooth="yes"/>
      <point x="621.4" y="965.944" type="line"/>
      <point x="602.992" y="907.872" type="line"/>
      <point x="696.056" y="907.872" type="line" smooth="yes"/>
      <point x="735.24" y="907.872"/>
      <point x="741.0" y="893.984"/>
      <point x="740.816" y="859.184" type="curve" smooth="yes"/>
      <point x="740.04" y="800.032" type="line" smooth="yes"/>
      <point x="736.3321379310345" y="717.8786206896552"/>
      <point x="750.0186666666666" y="704.5786666666667"/>
      <point x="881.368" y="717.648" type="curve"/>
    </contour>
    <contour>
      <point x="737.384" y="1166.0" type="line"/>
      <point x="563.632" y="1166.0" type="line"/>
      <point x="554.336" y="1136.112" type="line"/>
      <point x="596.856" y="1116.816" type="line"/>
      <point x="490.096" y="768.184" type="line"/>
      <point x="436.28" y="748.888" type="line"/>
      <point x="426.632" y="717.0" type="line"/>
      <point x="647.2" y="717.0" type="line"/>
      <point x="656.848" y="748.888" type="line"/>
      <point x="615.68" y="768.184" type="line"/>
    </contour>
    <contour>
      <point x="660.944" y="580.128" type="curve" smooth="yes"/>
      <point x="458.96" y="580.128"/>
      <point x="344.592" y="696.056"/>
      <point x="344.592" y="883.352" type="curve" smooth="yes"/>
      <point x="344.592" y="1102.128"/>
      <point x="500.128" y="1285.872"/>
      <point x="744.648" y="1285.872" type="curve" smooth="yes"/>
      <point x="946.632" y="1285.872"/>
      <point x="1061.0" y="1169.944"/>
      <point x="1061.0" y="982.648" type="curve" smooth="yes"/>
      <point x="1061.0" y="763.872"/>
      <point x="905.464" y="580.128"/>
    </contour>
    <contour>
      <point x="754.24" y="1366.48" type="curve" smooth="yes"/>
      <point x="450.832" y="1366.48"/>
      <point x="254.336" y="1141.328"/>
      <point x="254.336" y="872.112" type="curve" smooth="yes"/>
      <point x="254.336" y="650.928"/>
      <point x="403.48" y="499.52"/>
      <point x="651.352" y="499.52" type="curve" smooth="yes"/>
      <point x="954.76" y="499.52"/>
      <point x="1151.256" y="725.32"/>
      <point x="1151.256" y="993.888" type="curve" smooth="yes"/>
      <point x="1151.256" y="1215.072"/>
      <point x="1002.112" y="1366.48"/>
    </contour>
  </outline>
</glyph>
<glyph name="Thorn" format="2">
  <advance width="1278.456"/>
  <unicode hex="00DE"/>
  <outline>
    <contour>
      <point x="679.192" y="415.368" type="curve" smooth="yes"/>
      <point x="314.04" y="415.368" type="line"/>
      <point x="281.192" y="301.448" type="line"/>
      <point x="683.48" y="301.448" type="line" smooth="yes"/>
      <point x="1097.616" y="301.448"/>
      <point x="1302.712" y="503.056"/>
      <point x="1302.712" y="770.52" type="curve" smooth="yes"/>
      <point x="1302.712" y="941.352"/>
      <point x="1185.008" y="1081.016"/>
      <point x="854.776" y="1081.016" type="curve" smooth="yes"/>
      <point x="520.968" y="1081.016" type="line"/>
      <point x="478.968" y="967.096" type="line"/>
      <point x="781.952" y="967.096" type="line" smooth="yes"/>
      <point x="946.256" y="967.096"/>
      <point x="1014.704" y="893.224"/>
      <point x="1014.704" y="769.848" type="curve" smooth="yes"/>
      <point x="1014.704" y="559.456"/>
      <point x="901.472" y="415.368"/>
    </contour>
    <contour>
      <point x="459.36" y="1247.928" type="line"/>
      <point x="108.24799999999999" y="97.016" type="line"/>
      <point x="-44.68" y="41.888" type="line"/>
      <point x="-57.328" y="0.0" type="line"/>
      <point x="511.96000000000004" y="0.0" type="line"/>
      <point x="524.608" y="41.888" type="line"/>
      <point x="399.86400000000003" y="92.072" type="line"/>
      <point x="750.976" y="1242.984" type="line"/>
      <point x="903.904" y="1298.112" type="line"/>
      <point x="916.552" y="1340.0" type="line"/>
      <point x="347.264" y="1340.0" type="line"/>
      <point x="334.616" y="1298.112" type="line"/>
    </contour>
  </outline>
</glyph>
<glyph name="thorn" format="2">
  <advance width="1026.616"/>
  <unicode hex="00FE"/>
  <outline>
    <contour>
      <point x="334.44" y="304.144" type="curve" smooth="yes"/>
      <point x="347.96000000000004" y="358.52" type="line" smooth="yes"/>
      <point x="387.128" y="516.08"/>
      <point x="518.688" y="697.344"/>
      <point x="614.936" y="697.344" type="curve" smooth="yes"/>
      <point x="678.68" y="697.344"/>
      <point x="700.664" y="653.88"/>
      <point x="700.664" y="570.728" type="curve" smooth="yes"/>
      <point x="700.664" y="320.52"/>
      <point x="533.768" y="64.44"/>
      <point x="413.576" y="64.44" type="curve" smooth="yes"/>
      <point x="346.848" y="64.44"/>
      <point x="315.144" y="106.888"/>
      <point x="315.144" y="179.776" type="curve" smooth="yes"/>
      <point x="315.144" y="208.792"/>
      <point x="320.384" y="248.272"/>
    </contour>
    <contour>
      <point x="372.776" y="496.168" type="line"/>
      <point x="677.064" y="1425.48" type="line"/>
      <point x="643.696" y="1425.48" type="line"/>
      <point x="245.096" y="1359.632" type="line"/>
      <point x="231.264" y="1313.896" type="line"/>
      <point x="285.672" y="1280.584"/>
      <point x="319.856" y="1252.104"/>
      <point x="353.912" y="1210.976" type="curve"/>
      <point x="-119.21600000000001" y="-411.04" type="line"/>
      <point x="-251.368" y="-463.928" type="line"/>
      <point x="-264.72" y="-503.52" type="line"/>
      <point x="270.872" y="-503.52" type="line"/>
      <point x="284.872" y="-463.28" type="line"/>
      <point x="149.216" y="-411.688" type="line"/>
      <point x="291.4" y="83.368" type="line"/>
      <point x="164.208" y="83.368" type="line"/>
      <point x="205.56" y="8.943999999999999"/>
      <point x="310.8" y="-26.48"/>
      <point x="442.344" y="-26.48" type="curve" smooth="yes"/>
      <point x="765.336" y="-26.48"/>
      <point x="992.8720000000001" y="306.224"/>
      <point x="992.8720000000001" y="626.8" type="curve" smooth="yes"/>
      <point x="992.8720000000001" y="783.736"/>
      <point x="897.5840000000001" y="891.44"/>
      <point x="757.528" y="891.44" type="curve" smooth="yes"/>
      <point x="613.592" y="891.44"/>
      <point x="482.592" y="774.184"/>
      <point x="350.224" y="500.896" type="curve"/>
    </contour>
  </outline>
</glyph>
<glyph name="Dcroat" format="2">
  <advance width="1500.528"/>
  <unicode hex="0110"/>
  <outline>
    <contour>
      <point x="132.912" y="621.04" type="line"/>
      <point x="821.672" y="621.04" type="line"/>
      <point x="857.8" y="738.368" type="line"/>
      <point x="169.04" y="738.368" type="line"/>
    </contour>
    <contour>
      <point x="555.008" y="113.92" type="curve" smooth="yes"/>
      <point x="273.52" y="113.92" type="line"/>
      <point x="211.472" y="0.0" type="line"/>
      <point x="544.992" y="0.0" type="line" smooth="yes"/>
      <point x="1147.16" y="0.0"/>
      <point x="1512.8" y="373.72"/>
      <point x="1512.8" y="842.032" type="curve" smooth="yes"/>
      <point x="1512.8" y="1141.616"/>
      <point x="1333.76" y="1340.0"/>
      <point x="901.096" y="1340.0" type="curve" smooth="yes"/>
      <point x="621.472" y="1340.0" type="line"/>
      <point x="608.024" y="1226.08" type="line"/>
      <point x="817.344" y="1226.08" type="line" smooth="yes"/>
      <point x="1083.176" y="1226.08"/>
      <point x="1215.496" y="1097.464"/>
      <point x="1215.496" y="869.36" type="curve" smooth="yes"/>
      <point x="1215.496" y="426.432"/>
      <point x="952.4159999999999" y="113.92"/>
    </contour>
    <contour>
      <point x="462.952" y="1247.928" type="line"/>
      <point x="111.84" y="97.016" type="line"/>
      <point x="-41.088" y="41.888" type="line"/>
      <point x="-53.736000000000004" y="0.0" type="line"/>
      <point x="375.86400000000003" y="0.0" type="line"/>
      <point x="783.808" y="1340.0" type="line"/>
      <point x="350.856" y="1340.0" type="line"/>
      <point x="338.20799999999997" y="1298.112" type="line"/>
    </contour>
  </outline>
</glyph>
<glyph name="hbar" format="2">
  <advance width="1083.984"/>
  <unicode hex="0127"/>
  <outline>
    <contour>
      <point x="316.44" y="201.89600000000002" type="line"/>
      <point x="418.288" y="536.624"/>
      <point x="572.392" y="701.104"/>
      <point x="668.992" y="701.104" type="curve" smooth="yes"/>
      <point x="708.144" y="701.104"/>
      <point x="723.552" y="681.696"/>
      <point x="723.552" y="652.584" type="curve" smooth="yes"/>
      <point x="723.552" y="630.88"/>
      <point x="715.552" y="603.88"/>
      <point x="696.776" y="555.144" type="curve" smooth="yes"/>
      <point x="520.12" y="98.92" type="line" smooth="yes"/>
      <point x="485.288" y="9.016"/>
      <point x="517.08" y="-26.48"/>
      <point x="630.648" y="-26.48" type="curve" smooth="yes"/>
      <point x="766.952" y="-26.48"/>
      <point x="904.648" y="53.032"/>
      <point x="1058.608" y="252.376" type="curve"/>
      <point x="1019.5360000000001" y="290.504" type="line"/>
      <point x="915.208" y="190.232"/>
      <point x="833.224" y="143.64"/>
      <point x="742.952" y="142.344" type="curve"/>
      <point x="776.592" y="72.296" type="line"/>
      <point x="960.336" y="551.656" type="line" smooth="yes"/>
      <point x="987.8720000000001" y="623.968"/>
      <point x="1001.224" y="686.336"/>
      <point x="1001.224" y="734.52" type="curve" smooth="yes"/>
      <point x="1001.224" y="826.072"/>
      <point x="950.3199999999999" y="890.384"/>
      <point x="815.696" y="890.384" type="curve" smooth="yes"/>
      <point x="655.344" y="890.384"/>
      <point x="495.568" y="754.224"/>
      <point x="338.20799999999997" y="415.128" type="curve"/>
      <point x="351.20799999999997" y="395.632" type="line"/>
      <point x="694.176" y="1425.48" type="line"/>
      <point x="660.808" y="1425.48" type="line"/>
      <point x="249.248" y="1359.632" type="line"/>
      <point x="235.416" y="1313.896" type="line"/>
      <point x="291.12" y="1279.288"/>
      <point x="325.952" y="1249.512"/>
      <point x="361.304" y="1207.088" type="curve"/>
      <point x="-3.847999999999999" y="0.0" type="line"/>
      <point x="255.512" y="0.0" type="line"/>
    </contour>
    <contour>
      <point x="118.728" y="1019.28" type="line"/>
      <point x="809.384" y="1019.28" type="line"/>
      <point x="844.16" y="1133.792" type="line"/>
      <point x="153.152" y="1133.792" type="line"/>
    </contour>
  </outline>
</glyph>
<glyph name="scedilla" format="2">
  <advance width="732.128"/>
  <unicode hex="015F"/>
  <outline>
    <contour>
      <point x="90.52" y="-530.0" type="curve"/>
      <point x="264.424" y="-530.0"/>
      <point x="385.76" y="-410.28"/>
      <point x="385.76" y="-281.648" type="curve" smooth="yes"/>
      <point x="385.76" y="-207.168"/>
      <point x="336.392" y="-141.28"/>
      <point x="182.89600000000002" y="-105.264" type="curve"/>
      <point x="151.488" y="-221.832" type="line"/>
      <point x="371.2" y="33.864000000000004" type="line"/>
      <point x="284.592" y="33.864000000000004" type="line"/>
      <point x="55.624" y="-229.144" type="line"/>
      <point x="51.568" y="-242.608" type="line"/>
      <point x="208.6" y="-273.568"/>
      <point x="248.824" y="-310.216"/>
      <point x="248.824" y="-356.2" type="curve" smooth="yes"/>
      <point x="248.824" y="-410.0"/>
      <point x="209.84" y="-449.28"/>
      <point x="148.448" y="-449.28" type="curve" smooth="yes"/>
      <point x="76.32" y="-449.28"/>
      <point x="66.896" y="-378.504"/>
      <point x="13.600000000000001" y="-378.504" type="curve" smooth="yes"/>
      <point x="-28.344" y="-378.504"/>
      <point x="-51.992" y="-409.096"/>
      <point x="-51.992" y="-442.392" type="curve" smooth="yes"/>
      <point x="-51.992" y="-489.408"/>
      <point x="-3.088000000000001" y="-530.0"/>
    </contour>
    <contour>
      <point x="100.312" y="223.38400000000001" type="curve" smooth="yes"/>
      <point x="36.352" y="223.38400000000001"/>
      <point x="-12.256" y="179.256"/>
      <point x="-12.256" y="118.352" type="curve" smooth="yes"/>
      <point x="-12.256" y="40.224000000000004"/>
      <point x="64.464" y="-26.48"/>
      <point x="247.10399999999998" y="-26.48" type="curve" smooth="yes"/>
      <point x="465.704" y="-26.48"/>
      <point x="624.456" y="114.624"/>
      <point x="624.456" y="274.824" type="curve" smooth="yes"/>
      <point x="624.456" y="352.84000000000003"/>
      <point x="590.808" y="430.192"/>
      <point x="485.016" y="530.008" type="curve" smooth="yes"/>
      <point x="379.224" y="629.824"/>
      <point x="354.112" y="673.568"/>
      <point x="354.112" y="717.568" type="curve" smooth="yes"/>
      <point x="354.112" y="769.72"/>
      <point x="384.04" y="803.24"/>
      <point x="439.376" y="803.24" type="curve" smooth="yes"/>
      <point x="478.912" y="803.24"/>
      <point x="523.744" y="769.168"/>
      <point x="561.688" y="712.984" type="curve" smooth="yes"/>
      <point x="599.6320000000001" y="656.8"/>
      <point x="616.928" y="642.912"/>
      <point x="628.6320000000001" y="642.912" type="curve" smooth="yes"/>
      <point x="691.832" y="642.912"/>
      <point x="737.144" y="682.448"/>
      <point x="737.144" y="744.0" type="curve" smooth="yes"/>
      <point x="737.144" y="825.312"/>
      <point x="669.128" y="891.44"/>
      <point x="497.248" y="891.44" type="curve" smooth="yes"/>
      <point x="280.72" y="891.44"/>
      <point x="149.432" y="759.408"/>
      <point x="149.432" y="598.784" type="curve" smooth="yes"/>
      <point x="149.432" y="504.272"/>
      <point x="189.392" y="429.496"/>
      <point x="293.352" y="340.4" type="curve" smooth="yes"/>
      <point x="397.312" y="251.304"/>
      <point x="420.312" y="207.024"/>
      <point x="420.312" y="155.504" type="curve" smooth="yes"/>
      <point x="420.312" y="93.24"/>
      <point x="372.328" y="58.96"/>
      <point x="305.936" y="58.96" type="curve" smooth="yes"/>
      <point x="263.104" y="58.96"/>
      <point x="221.272" y="81.2"/>
      <point x="175.144" y="145.736" type="curve" smooth="yes"/>
      <point x="129.016" y="210.272"/>
      <point x="114.424" y="223.38400000000001"/>
    </contour>
  </outline>
</glyph>
<glyph name="uni0162" format="2">
  <advance width="1307.0"/>
  <unicode hex="0162"/>
  <outline>
    <contour>
      <point x="1371.088" y="1217.488" type="line"/>
      <point x="1310.88" y="1252.04" type="line"/>
      <point x="1375.096" y="937.824" type="line"/>
      <point x="1427.648" y="937.824" type="line"/>
      <point x="1529.592" y="1412.536" type="line"/>
      <point x="1494.448" y="1412.536" type="line"/>
      <point x="1307.992" y="1316.224" type="line"/>
      <point x="1419.56" y="1340.0" type="line"/>
      <point x="433.904" y="1340.0" type="line"/>
      <point x="526.472" y="1316.224" type="line"/>
      <point x="402.904" y="1412.536" type="line"/>
      <point x="369.056" y="1412.536" type="line"/>
      <point x="192.488" y="953.288" type="line"/>
      <point x="243.744" y="931.696" type="line"/>
      <point x="513.992" y="1250.152" type="line"/>
      <point x="373.832" y="1217.488" type="line"/>
    </contour>
    <contour>
      <point x="757.768" y="1255.672" type="line"/>
      <point x="404.192" y="97.016" type="line"/>
      <point x="251.264" y="41.888" type="line"/>
      <point x="238.61599999999999" y="0.0" type="line"/>
      <point x="807.904" y="0.0" type="line"/>
      <point x="820.552" y="41.888" type="line"/>
      <point x="695.808" y="92.072" type="line"/>
      <point x="1051.032" y="1255.672" type="line"/>
    </contour>
    <contour>
      <point x="330.824" y="-530.0" type="curve"/>
      <point x="504.728" y="-530.0"/>
      <point x="626.064" y="-410.28"/>
      <point x="626.064" y="-281.648" type="curve" smooth="yes"/>
      <point x="626.064" y="-207.168"/>
      <point x="576.696" y="-141.28"/>
      <point x="423.2" y="-105.264" type="curve"/>
      <point x="391.79200000000003" y="-221.832" type="line"/>
      <point x="623.824" y="49.352" type="line"/>
      <point x="537.216" y="49.352" type="line"/>
      <point x="295.928" y="-229.144" type="line"/>
      <point x="291.872" y="-242.608" type="line"/>
      <point x="448.904" y="-273.568"/>
      <point x="489.128" y="-310.216"/>
      <point x="489.128" y="-356.2" type="curve" smooth="yes"/>
      <point x="489.128" y="-410.0"/>
      <point x="450.144" y="-449.28"/>
      <point x="388.752" y="-449.28" type="curve" smooth="yes"/>
      <point x="316.624" y="-449.28"/>
      <point x="307.2" y="-378.504"/>
      <point x="253.904" y="-378.504" type="curve" smooth="yes"/>
      <point x="211.96" y="-378.504"/>
      <point x="188.312" y="-409.096"/>
      <point x="188.312" y="-442.392" type="curve" smooth="yes"/>
      <point x="188.312" y="-489.408"/>
      <point x="237.216" y="-530.0"/>
    </contour>
  </outline>
</glyph>
<glyph name="Ohorn" format="2">
  <advance width="1517.4"/>
  <unicode hex="01A0"/>
  <anchor x="1015.136" y="1340.0" name="UCtop"/>
  <anchor x="633.0" y="0.0" name="bottom"/>
  <outline>
    <contour>
      <point x="421.2" y="418.536" type="curve" smooth="yes"/>
      <point x="421.2" y="820.784"/>
      <point x="662.024" y="1247.784"/>
      <point x="974.416" y="1247.784" type="curve" smooth="yes"/>
      <point x="1141.192" y="1247.784"/>
      <point x="1236.552" y="1148.032"/>
      <point x="1236.552" y="921.4639999999999" type="curve" smooth="yes"/>
      <point x="1236.552" y="519.216"/>
      <point x="995.728" y="92.21600000000001"/>
      <point x="683.336" y="92.21600000000001" type="curve" smooth="yes"/>
      <point x="516.56" y="92.21600000000001"/>
      <point x="421.2" y="191.968"/>
    </contour>
    <contour>
      <point x="1521.024" y="831.608" type="curve" smooth="yes"/>
      <point x="1521.024" y="1016.48"/>
      <point x="1460.264" y="1161.112"/>
      <point x="1346.536" y="1251.448" type="curve"/>
      <point x="1345.128" y="1234.208" type="line"/>
      <point x="1574.816" y="1222.056"/>
      <point x="1681.576" y="1334.592"/>
      <point x="1681.576" y="1505.016" type="curve" smooth="yes"/>
      <point x="1681.576" y="1570.864"/>
      <point x="1645.208" y="1610.288"/>
      <point x="1583.6" y="1610.288" type="curve" smooth="yes"/>
      <point x="1516.752" y="1610.288"/>
      <point x="1469.792" y="1567.808"/>
      <point x="1469.792" y="1519.16" type="curve" smooth="yes"/>
      <point x="1469.792" y="1501.696"/>
      <point x="1483.272" y="1473.384"/>
      <point x="1483.272" y="1433.24" type="curve" smooth="yes"/>
      <point x="1483.272" y="1370.816"/>
      <point x="1434.016" y="1329.424"/>
      <point x="1321.216" y="1329.424" type="curve" smooth="yes"/>
      <point x="1200.048" y="1329.424"/>
      <point x="1113.528" y="1366.48"/>
      <point x="968.4" y="1366.48" type="curve" smooth="yes"/>
      <point x="487.928" y="1366.48"/>
      <point x="136.728" y="964.464"/>
      <point x="136.728" y="508.392" type="curve" smooth="yes"/>
      <point x="136.728" y="169.336"/>
      <point x="336.192" y="-26.48"/>
      <point x="689.352" y="-26.48" type="curve" smooth="yes"/>
      <point x="1169.824" y="-26.48"/>
      <point x="1521.024" y="375.536"/>
    </contour>
  </outline>
</glyph>
<glyph name="uni0308" format="2">
  <unicode hex="0308"/>
  <anchor x="131.944" y="864.96" name="_top"/>
  <anchor x="250.704" y="1255.0" name="top"/>
  <outline>
    <contour>
      <point x="26.488" y="1044.616" type="curve" smooth="yes"/>
      <point x="104.44800000000001" y="1044.616"/>
      <point x="157.872" y="1102.688"/>
      <point x="157.872" y="1174.352" type="curve" smooth="yes"/>
      <point x="157.872" y="1247.312"/>
      <point x="104.44800000000001" y="1305.384"/>
      <point x="26.488" y="1305.384" type="curve" smooth="yes"/>
      <point x="-50.824" y="1305.384"/>
      <point x="-104.896" y="1247.312"/>
      <point x="-104.896" y="1174.352" type="curve" smooth="yes"/>
      <point x="-104.896" y="1102.688"/>
      <point x="-50.824" y="1044.616"/>
    </contour>
    <contour>
      <point x="425.624" y="1044.616" type="curve" smooth="yes"/>
      <point x="503.584" y="1044.616"/>
      <point x="557.008" y="1102.688"/>
      <point x="557.008" y="1174.352" type="curve" smooth="yes"/>
      <point x="557.008" y="1247.312"/>
      <point x="503.584" y="1305.384"/>
      <point x="425.624" y="1305.384" type="curve" smooth="yes"/>
      <point x="348.312" y="1305.384"/>
      <point x="294.24" y="1247.312"/>
      <point x="294.24" y="1174.352" type="curve" smooth="yes"/>
      <point x="294.24" y="1102.688"/>
      <point x="348.312" y="1044.616"/>
    </contour>
  </outline>
</glyph>
<glyph name="uni030C" format="2">
  <unicode hex="030C"/>
  <anchor x="131.944" y="864.96" name="_top"/>
  <anchor x="277.056" y="1340.0" name="top"/>
  <outline>
    <contour>
      <point x="574.048" y="1340.0" type="line"/>
      <point x="465.408" y="1340.0" type="line"/>
      <point x="154.768" y="1130.464" type="line"/>
      <point x="242.272" y="1130.464" type="line"/>
      <point x="65.704" y="1340.0" type="line"/>
      <point x="-19.288000000000004" y="1340.0" type="line"/>
      <point x="80.264" y="1009.0" type="line"/>
      <point x="272.496" y="1009.0" type="line"/>
    </contour>
  </outline>
</glyph>
<glyph name="uni0324" format="2">
  <unicode hex="0324"/>
  <anchor x="-131.944" y="0.0" name="_bottom"/>
  <anchor x="-292.888" y="-530.0" name="bottom"/>
  <outline>
    <contour>
      <point x="-407.808" y="-382.144" type="curve" smooth="yes"/>
      <point x="-329.848" y="-382.144"/>
      <point x="-276.424" y="-324.072"/>
      <point x="-276.424" y="-252.408" type="curve" smooth="yes"/>
      <point x="-276.424" y="-179.448"/>
      <point x="-329.848" y="-121.376"/>
      <point x="-407.808" y="-121.376" type="curve" smooth="yes"/>
      <point x="-485.12" y="-121.376"/>
      <point x="-539.192" y="-179.448"/>
      <point x="-539.192" y="-252.408" type="curve" smooth="yes"/>
      <point x="-539.192" y="-324.072"/>
      <point x="-485.12" y="-382.144"/>
    </contour>
    <contour>
      <point x="-8.672" y="-382.144" type="curve" smooth="yes"/>
      <point x="69.28800000000001" y="-382.144"/>
      <point x="122.712" y="-324.072"/>
      <point x="122.712" y="-252.408" type="curve" smooth="yes"/>
      <point x="122.712" y="-179.448"/>
      <point x="69.28800000000001" y="-121.376"/>
      <point x="-8.672" y="-121.376" type="curve" smooth="yes"/>
      <point x="-85.984" y="-121.376"/>
      <point x="-140.056" y="-179.448"/>
      <point x="-140.056" y="-252.408" type="curve" smooth="yes"/>
      <point x="-140.056" y="-324.072"/>
      <point x="-85.984" y="-382.144"/>
    </contour>
  </outline>
</glyph>
<glyph name="bullet" format="2">
  <advance width="829.648"/>
  <unicode hex="2022"/>
  <outline>
    <contour>
      <point x="417.648" y="700.032" type="curve" smooth="yes"/>
      <point x="264.576" y="700.032"/>
      <point x="153.448" y="584.904"/>
      <point x="153.448" y="442.48" type="curve" smooth="yes"/>
      <point x="153.448" y="300.056"/>
      <point x="264.576" y="184.928"/>
      <point x="417.648" y="184.928" type="curve" smooth="yes"/>
      <point x="570.72" y="184.928"/>
      <point x="681.848" y="300.056"/>
      <point x="681.848" y="442.48" type="curve" smooth="yes"/>
      <point x="681.848" y="584.904"/>
      <point x="570.72" y="700.032"/>
    </contour>
  </outline>
</glyph>
<glyph name="uni27E8" format="2">
  <advance width="1000.0"/>
  <unicode hex="27E8"/>
  <outline>
    <contour>
      <point x="355.536" y="607.192" type="line"/>
      <point x="1100.088" y="1340.0" type="line"/>
      <point x="935.008" y="1340.0" type="line"/>
      <point x="253.672" y="681.48" type="line"/>
      <point x="246.784" y="657.52" type="line"/>
      <point x="560.728" y="0.0" type="line"/>
      <point x="691.088" y="0.0" type="line"/>
      <point x="377.496" y="682.296" type="line"/>
    </contour>
  </outline>
</glyph>
<glyph name="fi" format="2">
  <advance width="1217.032"/>
  <unicode hex="FB01"/>
  <outline>
    <contour>
      <point x="93.392" y="766.168" type="line"/>
      <point x="972.336" y="766.168" type="line"/>
      <point x="894.168" y="785.688" type="line"/>
      <point x="655.776" y="85.54400000000001" type="line" smooth="yes"/>
      <point x="628.872" y="8.072000000000001"/>
      <point x="662.24" y="-26.48"/>
      <point x="758.272" y="-26.48" type="curve" smooth="yes"/>
      <point x="892.6320000000001" y="-26.48"/>
      <point x="1030.272" y="50.088"/>
      <point x="1180.992" y="237.768" type="curve"/>
      <point x="1142.624" y="276.896" type="line"/>
      <point x="1039.72" y="179.696"/>
      <point x="957.16" y="135.344"/>
      <point x="859.76" y="140.10399999999998" type="curve"/>
      <point x="920.8240000000001" y="72.296" type="line"/>
      <point x="1194.672" y="891.44" type="line"/>
      <point x="1155.936" y="891.44" type="line"/>
      <point x="1103.512" y="874.904"/>
      <point x="1017.424" y="864.96"/>
      <point x="941.24" y="864.96" type="curve" smooth="yes"/>
      <point x="111.632" y="864.96" type="line"/>
    </contour>
    <contour>
      <point x="455.544" y="289.552" type="curve" smooth="yes"/>
      <point x="625.9680000000001" y="1053.936" type="line" smooth="yes"/>
      <point x="669.616" y="1248.608"/>
      <point x="728.16" y="1311.784"/>
      <point x="833.688" y="1311.784" type="curve" smooth="yes"/>
      <point x="891.392" y="1311.784"/>
      <point x="947.76" y="1276.952"/>
      <point x="995.776" y="1215.88" type="curve" smooth="yes"/>
      <point x="1043.792" y="1154.808"/>
      <point x="1064.496" y="1141.808"/>
      <point x="1078.608" y="1141.808" type="curve" smooth="yes"/>
      <point x="1139.2" y="1141.808"/>
      <point x="1196.232" y="1191.176"/>
      <point x="1196.232" y="1262.504" type="curve" smooth="yes"/>
      <point x="1196.232" y="1352.52"/>
      <point x="1118.176" y="1425.48"/>
      <point x="947.144" y="1425.48" type="curve" smooth="yes"/>
      <point x="652.4639999999999" y="1425.48"/>
      <point x="387.168" y="1217.04"/>
      <point x="303.024" y="811.648" type="curve" smooth="yes"/>
      <point x="107.328" y="-133.584" type="line" smooth="yes"/>
      <point x="60.32" y="-365.552"/>
      <point x="3.2960000000000003" y="-420.8"/>
      <point x="-79.544" y="-420.8" type="curve" smooth="yes"/>
      <point x="-114.84" y="-420.8"/>
      <point x="-149.192" y="-402.56"/>
      <point x="-191.8" y="-345.528" type="curve" smooth="yes"/>
      <point x="-234.408" y="-288.496"/>
      <point x="-258.704" y="-264.44"/>
      <point x="-282.76" y="-264.44" type="curve" smooth="yes"/>
      <point x="-337.48" y="-264.44"/>
      <point x="-383.144" y="-311.032"/>
      <point x="-383.144" y="-376.712" type="curve" smooth="yes"/>
      <point x="-383.144" y="-464.8"/>
      <point x="-314.776" y="-530.0"/>
      <point x="-167.024" y="-530.0" type="curve" smooth="yes"/>
      <point x="93.024" y="-530.0"/>
      <point x="314.848" y="-333.448"/>
    </contour>
  </outline>
</glyph>
<glyph name="franc.lf" format="2">
  <advance width="1190.456"/>
  <outline>
    <contour>
      <point x="1358.4" y="1406.496" type="line"/>
      <point x="1214.144" y="1340.0" type="line"/>
      <point x="698.44" y="1340.0" type="line"/>
      <point x="663.96" y="1235.024" type="line"/>
      <point x="1241.176" y="1235.024" type="line"/>
      <point x="1174.648" y="1267.28" type="line"/>
      <point x="1242.016" y="949.784" type="line"/>
      <point x="1291.976" y="949.784" type="line"/>
      <point x="1379.768" y="1406.496" type="line"/>
    </contour>
    <contour>
      <point x="933.992" y="580.944" type="line"/>
      <point x="150.28" y="580.944" type="line"/>
      <point x="119.856" y="481.728" type="line"/>
      <point x="903.568" y="481.728" type="line"/>
    </contour>
    <contour>
      <point x="1020.472" y="864.272" type="line"/>
      <point x="236.408" y="864.272" type="line"/>
      <point x="206.336" y="765.056" type="line"/>
      <point x="990.048" y="765.056" type="line"/>
    </contour>
    <contour>
      <point x="537.928" y="1243.984" type="line"/>
      <point x="187.056" y="95.368" type="line"/>
      <point x="5.744" y="40.24" type="line"/>
      <point x="-5.904" y="0.0" type="line"/>
      <point x="606.152" y="0.0" type="line"/>
      <point x="617.8" y="40.24" type="line"/>
      <point x="472.024" y="95.368" type="line"/>
      <point x="852.136" y="1340.0" type="line"/>
      <point x="403.096" y="1340.0" type="line"/>
      <point x="391.448" y="1299.112" type="line"/>
    </contour>
  </outline>
</glyph>
<glyph name="peseta.lf" format="2">
  <advance width="1659.776"/>
  <outline>
    <contour>
      <point x="943.824" y="218.976" type="curve" smooth="yes"/>
      <point x="1195.824" y="1043.976" type="line"/>
      <point x="1127.864" y="1043.976" type="line"/>
      <point x="1069.088" y="944.328"/>
      <point x="1001.224" y="880.592"/>
      <point x="900.04" y="848.424" type="curve"/>
      <point x="872.616" y="758.56" type="line"/>
      <point x="919.768" y="758.56" type="line"/>
      <point x="748.36" y="196.688" type="line" smooth="yes"/>
      <point x="702.192" y="46.128"/>
      <point x="748.768" y="-16.0"/>
      <point x="859.408" y="-16.0" type="curve" smooth="yes"/>
      <point x="904.888" y="-16.0"/>
      <point x="960.776" y="2.944"/>
      <point x="1035.592" y="57.519999999999996" type="curve"/>
      <point x="1057.0720000000001" y="128.552" type="line"/>
      <point x="1026.088" y="116.792"/>
      <point x="998.92" y="114.792"/>
      <point x="976.808" y="114.792" type="curve" smooth="yes"/>
      <point x="929.472" y="114.792"/>
      <point x="919.5840000000001" y="140.608"/>
    </contour>
    <contour>
      <point x="1033.096" y="758.56" type="line"/>
      <point x="1220.464" y="758.56" type="line"/>
      <point x="1267.944" y="883.352" type="line"/>
      <point x="1118.88" y="883.352" type="line"/>
    </contour>
    <contour>
      <point x="472.152" y="1266.408" type="line"/>
      <point x="106.744" y="73.592" type="line"/>
      <point x="-5.440000000000001" y="38.832" type="line"/>
      <point x="-17.384" y="0.0" type="line"/>
      <point x="397.04" y="0.0" type="line"/>
      <point x="408.98400000000004" y="38.832" type="line"/>
      <point x="316.856" y="76.184" type="line"/>
      <point x="703.912" y="1340.0" type="line"/>
      <point x="391.968" y="1340.0" type="line"/>
      <point x="380.024" y="1301.168" type="line"/>
    </contour>
    <contour>
      <point x="1529.296" y="905.0" type="curve" smooth="yes"/>
      <point x="1319.392" y="905.0"/>
      <point x="1237.112" y="735.064"/>
      <point x="1237.112" y="565.048" type="curve" smooth="yes"/>
      <point x="1237.112" y="422.824"/>
      <point x="1324.36" y="370.856"/>
      <point x="1324.36" y="249.76" type="curve" smooth="yes"/>
      <point x="1324.36" y="128.888"/>
      <point x="1276.264" y="77.0"/>
      <point x="1187.04" y="77.0" type="curve" smooth="yes"/>
      <point x="1179.52" y="77.0"/>
      <point x="1171.704" y="77.352"/>
      <point x="1163.24" y="80.168" type="curve"/>
      <point x="1199.144" y="14.0" type="line"/>
      <point x="1190.2" y="253.52" type="line"/>
      <point x="1136.464" y="253.52" type="line"/>
      <point x="1082.056" y="5.0" type="line"/>
      <point x="1110.352" y="-9.0"/>
      <point x="1151.592" y="-15.0"/>
      <point x="1204.832" y="-15.0" type="curve" smooth="yes"/>
      <point x="1381.328" y="-15.0"/>
      <point x="1504.384" y="109.888"/>
      <point x="1504.384" y="308.272" type="curve" smooth="yes"/>
      <point x="1504.384" y="470.79200000000003"/>
      <point x="1415.728" y="566.216"/>
      <point x="1415.728" y="673.424" type="curve" smooth="yes"/>
      <point x="1415.728" y="755.904"/>
      <point x="1448.136" y="810.408"/>
      <point x="1543.344" y="810.408" type="curve" smooth="yes"/>
      <point x="1555.048" y="810.408"/>
      <point x="1567.992" y="808.056"/>
      <point x="1577.64" y="803.352" type="curve"/>
      <point x="1532.296" y="870.664" type="line"/>
      <point x="1537.776" y="659.624" type="line"/>
      <point x="1589.624" y="659.624" type="line"/>
      <point x="1648.848" y="882.0" type="line"/>
      <point x="1623.904" y="896.0"/>
      <point x="1578.0720000000001" y="905.0"/>
    </contour>
    <contour>
      <point x="539.6" y="693.744" type="curve" smooth="yes"/>
      <point x="478.20799999999997" y="693.744" type="line"/>
      <point x="419.264" y="597.248" type="line"/>
      <point x="540.376" y="597.248" type="line" smooth="yes"/>
      <point x="781.12" y="597.248"/>
      <point x="929.208" y="892.984"/>
      <point x="929.208" y="1138.792" type="curve" smooth="yes"/>
      <point x="929.208" y="1267.904"/>
      <point x="869.744" y="1340.0"/>
      <point x="716.928" y="1340.0" type="curve" smooth="yes"/>
      <point x="645.984" y="1340.0" type="line"/>
      <point x="646.56" y="1244.152" type="line"/>
      <point x="678.728" y="1244.152" type="line" smooth="yes"/>
      <point x="734.2" y="1244.152"/>
      <point x="752.72" y="1219.056"/>
      <point x="752.72" y="1162.104" type="curve" smooth="yes"/>
      <point x="752.72" y="1004.04"/>
      <point x="644.424" y="693.744"/>
    </contour>
  </outline>
</glyph>
<glyph name="uni0302_hookabovecomb" format="2">
  <anchor x="131.944" y="864.96" name="_top"/>
  <outline>
    <contour>
      <point x="491.79200000000003" y="1281.496" type="curve"/>
      <point x="500.456" y="1204.76" type="line"/>
      <point x="751.008" y="1257.128"/>
      <point x="807.288" y="1334.112"/>
      <point x="807.288" y="1438.816" type="curve" smooth="yes"/>
      <point x="807.288" y="1527.072"/>
      <point x="743.976" y="1589.368"/>
      <point x="534.576" y="1607.48" type="curve"/>
      <point x="473.944" y="1452.688" type="line"/>
      <point x="616.072" y="1445.224"/>
      <point x="651.312" y="1422.0"/>
      <point x="651.312" y="1382.0" type="curve" smooth="yes"/>
      <point x="651.312" y="1340.96"/>
      <point x="624.44" y="1312.736"/>
    </contour>
    <contour>
      <point x="-120.28800000000001" y="1009.0" type="line"/>
      <point x="-11.648" y="1009.0" type="line"/>
      <point x="298.992" y="1218.536" type="line"/>
      <point x="211.488" y="1218.536" type="line"/>
      <point x="388.056" y="1009.0" type="line"/>
      <point x="473.048" y="1009.0" type="line"/>
      <point x="373.496" y="1340.0" type="line"/>
      <point x="181.264" y="1340.0" type="line"/>
    </contour>
  </outline>
</glyph>
<glyph name="uni0302_tildecomb.case" format="2">
  <anchor x="277.056" y="1340.0" name="_UCtop"/>
  <outline>
    <contour>
      <point x="392.752" y="1541.96" type="line"/>
      <point x="309.488" y="1541.96" type="line"/>
      <point x="487.616" y="1430.0" type="line"/>
      <point x="577.424" y="1430.0" type="line"/>
      <point x="449.072" y="1626.0" type="line"/>
      <point x="281.04" y="1626.0" type="line"/>
      <point x="32.688" y="1430.0" type="line"/>
      <point x="147.792" y="1430.0" type="line"/>
    </contour>
    <contour>
      <point x="680.424" y="1846.0" type="curve"/>
      <point x="606.632" y="1846.0" type="line"/>
      <point x="575.464" y="1804.48"/>
      <point x="550.816" y="1789.48"/>
      <point x="512.464" y="1789.48" type="curve" smooth="yes"/>
      <point x="456.576" y="1789.48"/>
      <point x="385.856" y="1849.944"/>
      <point x="319.84" y="1849.944" type="curve" smooth="yes"/>
      <point x="241.544" y="1849.944"/>
      <point x="195.12" y="1805.72"/>
      <point x="111.896" y="1670.0" type="curve"/>
      <point x="185.688" y="1670.0" type="line"/>
      <point x="216.504" y="1711.52"/>
      <point x="241.152" y="1726.52"/>
      <point x="279.504" y="1726.52" type="curve" smooth="yes"/>
      <point x="335.392" y="1726.52"/>
      <point x="405.056" y="1666.056"/>
      <point x="472.48" y="1666.056" type="curve" smooth="yes"/>
      <point x="550.776" y="1666.056"/>
      <point x="597.2" y="1710.28"/>
    </contour>
  </outline>
</glyph>
<glyph name="uni0306.case" format="2">
  <anchor x="277.056" y="1340.0" name="_UCtop"/>
  <anchor x="391.704" y="1716.0" name="UCtop"/>
  <outline>
    <contour>
      <point x="351.648" y="1617.624" type="curve" smooth="yes"/>
      <point x="241.832" y="1617.624"/>
      <point x="200.536" y="1647.48"/>
      <point x="201.832" y="1716.0" type="curve"/>
      <point x="115.024" y="1716.0" type="line"/>
      <point x="101.544" y="1530.816"/>
      <point x="163.912" y="1469.0"/>
      <point x="326.0" y="1469.0" type="curve" smooth="yes"/>
      <point x="486.328" y="1469.0"/>
      <point x="570.68" y="1526.592"/>
      <point x="670.088" y="1716.0" type="curve"/>
      <point x="561.56" y="1716.0" type="line"/>
      <point x="522.096" y="1646.072"/>
      <point x="459.296" y="1617.624"/>
    </contour>
  </outline>
</glyph>
<glyph name="uni030A.case" format="2">
  <anchor x="277.056" y="1340.0" name="_UCtop"/>
  <anchor x="391.704" y="1716.0" name="UCtop"/>
  <outline>
    <contour>
      <point x="362.8" y="1781.368" type="curve" smooth="yes"/>
      <point x="245.872" y="1781.368"/>
      <point x="165.632" y="1697.44"/>
      <point x="165.632" y="1586.848" type="curve" smooth="yes"/>
      <point x="165.632" y="1483.184"/>
      <point x="241.296" y="1410.632"/>
      <point x="346.96" y="1410.632" type="curve" smooth="yes"/>
      <point x="463.888" y="1410.632"/>
      <point x="544.128" y="1495.856"/>
      <point x="544.128" y="1605.152" type="curve" smooth="yes"/>
      <point x="544.128" y="1710.112"/>
      <point x="468.464" y="1781.368"/>
    </contour>
    <contour>
      <point x="349.424" y="1478.76" type="curve" smooth="yes"/>
      <point x="283.184" y="1478.76"/>
      <point x="238.112" y="1523.48"/>
      <point x="238.112" y="1590.72" type="curve" smooth="yes"/>
      <point x="238.112" y="1661.96"/>
      <point x="288.112" y="1715.832"/>
      <point x="360.336" y="1715.832" type="curve" smooth="yes"/>
      <point x="426.576" y="1715.832"/>
      <point x="471.648" y="1671.112"/>
      <point x="471.648" y="1601.28" type="curve" smooth="yes"/>
      <point x="471.648" y="1532.632"/>
      <point x="421.648" y="1478.76"/>
    </contour>
  </outline>
</glyph>
